<?xml version="1.0" encoding="iso-8859-1" standalone="no"?> 
<?xml-stylesheet href="secret-santa.css" type="text/css"?> 
<svg xmlns="http://www.w3.org/2000/svg" xmlns:xlink="http://www.w3.org/1999/xlink" width="117.01157pt" height="76.77327pt" viewBox="-18.26749 -18.26749 117.01157 76.77327 "> 
<g transform="translate(0, 58.50578 ) scale(1,-1) translate(0,18.26749 )"> 
     <g>
 <g stroke="rgb(0.0%,0.0%,0.0%)">
 <g fill="rgb(0.0%,0.0%,0.0%)">
 <g stroke-width="0.4pt">
 <g>
 <g>
 <path d=" M  18.06749 0.0 C  18.06749 9.97852 9.97852 18.06749 0.0 18.06749 C  -9.97852 18.06749 -18.06749 9.97852 -18.06749 0.0 C  -18.06749 -9.97852 -9.97852 -18.06749 0.0 -18.06749 C  9.97852 -18.06749 18.06749 -9.97852 18.06749 0.0 Z M  0.0 0.0  " style="fill:none"/>
 <g>
 <g transform="matrix(1.0,0.0,0.0,1.0,-10.97223,-3.47221)">
 <g fill="rgb(0.0%,0.0%,0.0%)">
 <text style="stroke:none" transform="scale(1,-1) translate(10.97223,0)" text-anchor="middle"  font-size="10"> 
Alice</text> 
</g>
 </g>
 </g>
 </g>
 <g>
 <path d=" M  58.30579 40.2383 C  58.30579 50.21681 50.21681 58.30579 40.2383 58.30579 C  30.25978 58.30579 22.1708 50.21681 22.1708 40.2383 C  22.1708 30.25978 30.25978 22.1708 40.2383 22.1708 C  50.21681 22.1708 58.30579 30.25978 58.30579 40.2383 Z M  40.2383 40.2383  " style="fill:none"/>
 <g>
 <g transform="matrix(1.0,0.0,0.0,1.0,31.41882,36.76608)">
 <g fill="rgb(0.0%,0.0%,0.0%)">
 <text style="stroke:none" transform="scale(1,-1) translate(8.81947,0)" text-anchor="middle"  font-size="10"> 
Bob</text> 
</g>
 </g>
 </g>
 </g>
 <g>
 <path d=" M  98.54408 0.0 C  98.54408 9.97852 90.45511 18.06749 80.4766 18.06749 C  70.49808 18.06749 62.4091 9.97852 62.4091 0.0 C  62.4091 -9.97852 70.49808 -18.06749 80.4766 -18.06749 C  90.45511 -18.06749 98.54408 -9.97852 98.54408 0.0 Z M  80.4766 0.0  " style="fill:none"/>
 <g>
 <g transform="matrix(1.0,0.0,0.0,1.0,68.51823,-3.47221)">
 <g fill="rgb(0.0%,0.0%,0.0%)">
 <text style="stroke:none" transform="scale(1,-1) translate(11.95836,0)" text-anchor="middle"  font-size="10"> 
Carol</text> 
</g>
 </g>
 </g>
 </g>
 <g>
 <path d=" M  12.91707 12.91707 L  21.42621 21.42691  " style="fill:none"/>
 <g>
 <g transform="matrix(0.70709,0.7071,-0.7071,0.70709,21.4262,21.42691)">
 <g>
 <g stroke-dasharray="none" stroke-dashoffset="0.0pt">
 <g stroke-linejoin="miter">
 <path d=" M  7.51122 0.0 C  6.5888 0.22232 2.53418 1.48212 0.0 2.85306 L  0.0 -2.85306 C  2.53418 -1.48212 6.5888 -0.22232 7.51122 0.0 Z  " />
 </g>
 </g>
 </g>
  </g>
 </g>
 </g>
 <g>
 <g stroke-dasharray="3.0pt,3.0pt" stroke-dashoffset="0.0pt">
 <g>
 <path d=" M  53.15536 27.32123 L  61.6645 18.81139  " style="fill:none"/>
 <g>
 <g transform="matrix(0.70709,-0.7071,0.7071,0.70709,61.66449,18.81139)">
 <g>
 <g stroke-dasharray="none" stroke-dashoffset="0.0pt">
 <g stroke-linejoin="miter">
 <path d=" M  7.51122 0.0 C  6.5888 0.22232 2.53418 1.48212 0.0 2.85306 L  0.0 -2.85306 C  2.53418 -1.48212 6.5888 -0.22232 7.51122 0.0 Z  " />
 </g>
 </g>
 </g>
  </g>
 </g>
 </g>
 <g>
 <path d=" M  62.2091 0.0 L  26.6033 0.0  " style="fill:none"/>
 <g>
 <g transform="matrix(-1.0,0.0,0.0,-1.0,26.6033,0.0)">
 <g>
 <g stroke-dasharray="none" stroke-dashoffset="0.0pt">
 <g stroke-linejoin="miter">
 <path d=" M  7.51122 0.0 C  6.5888 0.22232 2.53418 1.48212 0.0 2.85306 L  0.0 -2.85306 C  2.53418 -1.48212 6.5888 -0.22232 7.51122 0.0 Z  " />
 </g>
 </g>
 </g>
  </g>
 </g>
 </g>
 </g>
 </g>
 </g>
 </g>
 </g>
 </g>
 </g>
 
                                   </g> 
</svg> 
