<?xml version="1.0" encoding="iso-8859-1" standalone="no"?> 
<?xml-stylesheet href="secret-santa.css" type="text/css"?> 
<svg xmlns="http://www.w3.org/2000/svg" xmlns:xlink="http://www.w3.org/1999/xlink" width="214.16211pt" height="107.66685pt" viewBox="-18.26749 -18.26749 214.16211 107.66685 "> 
<g transform="translate(0, 89.39937 ) scale(1,-1) translate(0,18.26749 )"> 
     <g>
 <g stroke="rgb(0.0%,0.0%,0.0%)">
 <g fill="rgb(0.0%,0.0%,0.0%)">
 <g stroke-width="0.4pt">
 <g>
 <g>
 <path d=" M  18.06749 0.0 C  18.06749 9.97852 9.97852 18.06749 0.0 18.06749 C  -9.97852 18.06749 -18.06749 9.97852 -18.06749 0.0 C  -18.06749 -9.97852 -9.97852 -18.06749 0.0 -18.06749 C  9.97852 -18.06749 18.06749 -9.97852 18.06749 0.0 Z M  0.0 0.0  " style="fill:none"/>
 <g>
 <g transform="matrix(1.0,0.0,0.0,1.0,-10.97223,-3.47221)">
 <g fill="rgb(0.0%,0.0%,0.0%)">
 <text style="stroke:none" transform="scale(1,-1) translate(10.97223,0)" text-anchor="middle"  font-size="10"> 
Alice</text> 
</g>
 </g>
 </g>
 </g>
 <g>
 <path d=" M  18.06749 71.13188 C  18.06749 81.1104 9.97852 89.19937 0.0 89.19937 C  -9.97852 89.19937 -18.06749 81.1104 -18.06749 71.13188 C  -18.06749 61.15337 -9.97852 53.06439 0.0 53.06439 C  9.97852 53.06439 18.06749 61.15337 18.06749 71.13188 Z M  0.0 71.13188  " style="fill:none"/>
 <g>
 <g transform="matrix(1.0,0.0,0.0,1.0,-8.81947,67.65967)">
 <g fill="rgb(0.0%,0.0%,0.0%)">
 <text style="stroke:none" transform="scale(1,-1) translate(8.81947,0)" text-anchor="middle"  font-size="10"> 
Bob</text> 
</g>
 </g>
 </g>
 </g>
 <g>
 <path d=" M  89.19937 71.13188 C  89.19937 81.1104 81.1104 89.19937 71.13188 89.19937 C  61.15337 89.19937 53.06439 81.1104 53.06439 71.13188 C  53.06439 61.15337 61.15337 53.06439 71.13188 53.06439 C  81.1104 53.06439 89.19937 61.15337 89.19937 71.13188 Z M  71.13188 71.13188  " style="fill:none"/>
 <g>
 <g transform="matrix(1.0,0.0,0.0,1.0,59.17352,67.65967)">
 <g fill="rgb(0.0%,0.0%,0.0%)">
 <text style="stroke:none" transform="scale(1,-1) translate(11.95836,0)" text-anchor="middle"  font-size="10"> 
Carol</text> 
</g>
 </g>
 </g>
 </g>
 <g>
 <path d=" M  89.19937 0.0 C  89.19937 9.97852 81.1104 18.06749 71.13188 18.06749 C  61.15337 18.06749 53.06439 9.97852 53.06439 0.0 C  53.06439 -9.97852 61.15337 -18.06749 71.13188 -18.06749 C  81.1104 -18.06749 89.19937 -9.97852 89.19937 0.0 Z M  71.13188 0.0  " style="fill:none"/>
 <g>
 <g transform="matrix(1.0,0.0,0.0,1.0,60.2291,-3.41666)">
 <g fill="rgb(0.0%,0.0%,0.0%)">
 <text style="stroke:none" transform="scale(1,-1) translate(10.90279,0)" text-anchor="middle"  font-size="10"> 
Dave</text> 
</g>
 </g>
 </g>
 </g>
 <g>
 <path d=" M  139.49725 50.29788 C  139.49725 60.2764 131.40828 68.36537 121.42976 68.36537 C  111.45125 68.36537 103.36227 60.2764 103.36227 50.29788 C  103.36227 40.31937 111.45125 32.2304 121.42976 32.2304 C  131.40828 32.2304 139.49725 40.31937 139.49725 50.29788 Z M  121.42976 50.29788  " style="fill:none"/>
 <g>
 <g transform="matrix(1.0,0.0,0.0,1.0,110.24919,46.82567)">
 <g fill="rgb(0.0%,0.0%,0.0%)">
 <text style="stroke:none" transform="scale(1,-1) translate(11.18057,0)" text-anchor="middle"  font-size="10"> 
Ellen</text> 
</g>
 </g>
 </g>
 </g>
 <g>
 <g>
 <g transform="matrix(1.0,0.0,0.0,1.0,192.56165,50.29788)">
 <g fill="rgb(0.0%,0.0%,0.0%)">
 <text style="stroke:none" transform="scale(1,-1) translate(0.0,0)" text-anchor="middle"  font-size="10"> 
</text> 
</g>
 </g>
 </g>
 </g>
 <g>
 <path d=" M  0.0 18.26749 L  0.0 44.52858  " style="fill:none"/>
 <g>
 <g transform="matrix(0.0,1.0,-1.0,0.0,0.0,44.52858)">
 <g>
 <g stroke-dasharray="none" stroke-dashoffset="0.0pt">
 <g stroke-linejoin="miter">
 <path d=" M  7.51122 0.0 C  6.5888 0.22232 2.53418 1.48212 0.0 2.85306 L  0.0 -2.85306 C  2.53418 -1.48212 6.5888 -0.22232 7.51122 0.0 Z  " />
 </g>
 </g>
 </g>
  </g>
 </g>
 </g>
 <g>
 <path d=" M  18.26749 71.13188 L  44.52858 71.13188  " style="fill:none"/>
 <g>
 <g transform="matrix(1.0,0.0,0.0,1.0,44.52858,71.13188)">
 <g>
 <g stroke-dasharray="none" stroke-dashoffset="0.0pt">
 <g stroke-linejoin="miter">
 <path d=" M  7.51122 0.0 C  6.5888 0.22232 2.53418 1.48212 0.0 2.85306 L  0.0 -2.85306 C  2.53418 -1.48212 6.5888 -0.22232 7.51122 0.0 Z  " />
 </g>
 </g>
 </g>
  </g>
 </g>
 </g>
 <g>
 <path d=" M  52.8644 0.0 L  26.6033 0.0  " style="fill:none"/>
 <g>
 <g transform="matrix(-1.0,0.0,0.0,-1.0,26.6033,0.0)">
 <g>
 <g stroke-dasharray="none" stroke-dashoffset="0.0pt">
 <g stroke-linejoin="miter">
 <path d=" M  7.51122 0.0 C  6.5888 0.22232 2.53418 1.48212 0.0 2.85306 L  0.0 -2.85306 C  2.53418 -1.48212 6.5888 -0.22232 7.51122 0.0 Z  " />
 </g>
 </g>
 </g>
  </g>
 </g>
 </g>
 <g>
 <g stroke-dasharray="3.0pt,3.0pt" stroke-dashoffset="0.0pt">
 <g>
 <path d=" M  88.03381 64.13106 L  96.81516 60.49385  " style="fill:none"/>
 <g>
 <g transform="matrix(0.92525,-0.38327,0.38327,0.92525,96.81514,60.49385)">
 <g>
 <g stroke-dasharray="none" stroke-dashoffset="0.0pt">
 <g stroke-linejoin="miter">
 <path d=" M  7.51122 0.0 C  6.5888 0.22232 2.53418 1.48212 0.0 2.85306 L  0.0 -2.85306 C  2.53418 -1.48212 6.5888 -0.22232 7.51122 0.0 Z  " />
 </g>
 </g>
 </g>
  </g>
 </g>
 </g>
 <g>
 <path d=" M  108.5127 37.38081 L  89.94397 18.81139  " style="fill:none"/>
 <g>
 <g transform="matrix(-0.70709,-0.7071,0.7071,-0.70709,89.94398,18.81139)">
 <g>
 <g stroke-dasharray="none" stroke-dashoffset="0.0pt">
 <g stroke-linejoin="miter">
 <path d=" M  7.51122 0.0 C  6.5888 0.22232 2.53418 1.48212 0.0 2.85306 L  0.0 -2.85306 C  2.53418 -1.48212 6.5888 -0.22232 7.51122 0.0 Z  " />
 </g>
 </g>
 </g>
  </g>
 </g>
 </g>
 </g>
 </g>
 </g>
 </g>
 </g>
 </g>
 </g>
 
                                                                </g> 
</svg> 
