<?xml version="1.0" encoding="iso-8859-1" standalone="no"?> 
<?xml-stylesheet href="secret-santa.css" type="text/css"?> 
<svg xmlns="http://www.w3.org/2000/svg" xmlns:xlink="http://www.w3.org/1999/xlink" width="93.44048pt" height="36.53497pt" viewBox="-18.26749 -18.26749 93.44048 36.53497 "> 
<g transform="translate(0, 18.26749 ) scale(1,-1) translate(0,18.26749 )"> 
     <g>
 <g stroke="rgb(0.0%,0.0%,0.0%)">
 <g fill="rgb(0.0%,0.0%,0.0%)">
 <g stroke-width="0.4pt">
 <g>
 <g>
 <path d=" M  18.06749 0.0 C  18.06749 9.97852 9.97852 18.06749 0.0 18.06749 C  -9.97852 18.06749 -18.06749 9.97852 -18.06749 0.0 C  -18.06749 -9.97852 -9.97852 -18.06749 0.0 -18.06749 C  9.97852 -18.06749 18.06749 -9.97852 18.06749 0.0 Z M  0.0 0.0  " style="fill:none"/>
 <g>
 <g transform="matrix(1.0,0.0,0.0,1.0,-10.97223,-3.47221)">
 <g fill="rgb(0.0%,0.0%,0.0%)">
 <text style="stroke:none" transform="scale(1,-1) translate(10.97223,0)" text-anchor="middle"  font-size="10"> 
Alice</text> 
</g>
 </g>
 </g>
 </g>
 <g>
 <path d=" M  74.97299 0.0 C  74.97299 9.97852 66.88402 18.06749 56.9055 18.06749 C  46.92699 18.06749 38.83801 9.97852 38.83801 0.0 C  38.83801 -9.97852 46.92699 -18.06749 56.9055 -18.06749 C  66.88402 -18.06749 74.97299 -9.97852 74.97299 0.0 Z M  56.9055 0.0  " style="fill:none"/>
 <g>
 <g transform="matrix(1.0,0.0,0.0,1.0,48.08603,-3.47221)">
 <g fill="rgb(0.0%,0.0%,0.0%)">
 <text style="stroke:none" transform="scale(1,-1) translate(8.81947,0)" text-anchor="middle"  font-size="10"> 
Bob</text> 
</g>
 </g>
 </g>
 </g>
 <g>
 <path d=" M  15.87032 -9.16217 C  24.36913 -14.06894 32.53638 -14.06894 33.79326 -13.34355  " style="fill:none"/>
 <g>
 <g transform="matrix(0.86877,0.50162,-0.50162,0.86877,33.79324,-13.34357)">
 <g>
 <g stroke-dasharray="none" stroke-dashoffset="0.0pt">
 <g stroke-linejoin="miter">
 <path d=" M  7.51122 0.0 C  6.5888 0.22232 2.53418 1.48212 0.0 2.85306 L  0.0 -2.85306 C  2.53418 -1.48212 6.5888 -0.22232 7.51122 0.0 Z  " />
 </g>
 </g>
 </g>
  </g>
 </g>
 </g>
 <g>
 <path d=" M  41.03519 9.16217 C  32.53638 14.06894 24.36913 14.06894 23.11224 13.34355  " style="fill:none"/>
 <g>
 <g transform="matrix(-0.86877,-0.50162,0.50162,-0.86877,23.11226,13.34357)">
 <g>
 <g stroke-dasharray="none" stroke-dashoffset="0.0pt">
 <g stroke-linejoin="miter">
 <path d=" M  7.51122 0.0 C  6.5888 0.22232 2.53418 1.48212 0.0 2.85306 L  0.0 -2.85306 C  2.53418 -1.48212 6.5888 -0.22232 7.51122 0.0 Z  " />
 </g>
 </g>
 </g>
  </g>
 </g>
 </g>
 </g>
 </g>
 </g>
 </g>
 </g>
 
                            </g> 
</svg> 
